PathFileType	4	(X/Y/Z)	C:/Users/opensim2020/Desktop/walking_exp_matlab/subject06_walking21_straight_04.trc	
DataRate	CameraRate	NumFrames	NumMarkers	Units	OrigDataRate	OrigDataStartFrame	OrigNumFrames	
100.00	100.00	4	44	mm	100.00	2283	104	
Frame#	Time	LFHD			RFHD			LBHD			RBHD			C7			T10			CLAV			STRN			RBAK			LSHO			LUPA			LELB			LFRM			LWRA			LWRB			LFIN			RSHO			RUPA			RELB			RFRM			RWRA			RWRB			RFIN			LASI			RASI			LPSI			RPSI			LTHI			LKNE			LTIB			LANK			LHEE			LTOE			RTHI			RKNE			RTIB			RANK			RHEE			RTOE			*39			*40			*41			*42			*43			
		X1	Y1	Z1	X2	Y2	Z2	X3	Y3	Z3	X4	Y4	Z4	X5	Y5	Z5	X6	Y6	Z6	X7	Y7	Z7	X8	Y8	Z8	X9	Y9	Z9	X10	Y10	Z10	X11	Y11	Z11	X12	Y12	Z12	X13	Y13	Z13	X14	Y14	Z14	X15	Y15	Z15	X16	Y16	Z16	X17	Y17	Z17	X18	Y18	Z18	X19	Y19	Z19	X20	Y20	Z20	X21	Y21	Z21	X22	Y22	Z22	X23	Y23	Z23	X24	Y24	Z24	X25	Y25	Z25	X26	Y26	Z26	X27	Y27	Z27	X28	Y28	Z28	X29	Y29	Z29	X30	Y30	Z30	X31	Y31	Z31	X32	Y32	Z32	X33	Y33	Z33	X34	Y34	Z34	X35	Y35	Z35	X36	Y36	Z36	X37	Y37	Z37	X38	Y38	Z38	X39	Y39	Z39	X40	Y40	Z40	X41	Y41	Z41	X42	Y42	Z42	X43	Y43	Z43	X44	Y44	Z44	

1	0.000	1472.20471	1090.09387	1639.89087	1340.89795	1082.62354	1626.23865	1465.75171	1223.67700	1586.88428	1337.71545	1215.19763	1578.70166	1407.26563	1223.22925	1428.56628	1398.61279	1268.54456	1101.52979	1417.14282	1115.12561	1348.35901	1423.85217	1083.37109	1171.37073	1316.63806	1293.65869	1262.34436	1573.16345	1189.43237	1379.58325	1632.93774	1249.81348	1184.13037	1634.24072	1291.72827	1079.59216	1658.14075	1321.73682	932.97198	1632.55396	1289.50879	801.23669	1651.98975	1356.30408	819.26978	1655.40076	1348.13123	727.11383	1253.18384	1144.79968	1384.83704	1149.21509	1156.34985	1193.00183	1128.04700	1125.25940	1076.83337	1117.32056	1062.09705	976.15540	1169.31958	956.16797	878.88794	1118.21521	995.02734	857.24933	1127.48523	926.93927	808.95862	1516.25671	1098.41785	942.78650	1297.91479	1098.00940	937.69769	1491.95496	1256.44812	966.16650	1323.45166	1249.13538	968.59064	1601.03223	1105.20557	635.04553	1576.90735	1038.34058	486.27493	1579.23108	980.03473	240.99733	1549.93958	906.92548	81.11167	1499.53870	932.49768	54.46489	1560.04724	758.56683	96.97743	1261.50708	1206.90222	610.18597	1286.69873	1236.45593	486.79587	1303.11047	1383.53589	256.67798	1357.14099	1470.84802	95.20709	1404.73645	1514.99438	82.08557	1346.66321	1333.10046	35.38354	1406.40820	1186.31372	1677.80627												 
2	0.010	1474.37219	1076.45874	1638.58350	1342.98206	1069.26917	1624.84204	1468.06201	1210.13696	1585.52759	1339.96057	1201.71936	1577.30945	1409.51575	1209.79724	1427.16150	1400.52905	1254.37891	1099.81763	1419.18616	1101.44983	1347.12671	1425.48193	1069.27271	1170.18250	1318.66260	1279.98022	1260.88684	1575.27307	1175.98169	1377.87219	1634.63147	1237.10986	1182.65320	1635.57898	1279.80969	1078.37061	1659.04114	1311.15137	931.90051	1635.59875	1279.46411	800.23730	1652.48767	1347.30554	818.90729	1657.51929	1339.47302	726.83716	1255.20203	1131.20032	1383.53674	1150.99548	1142.86609	1191.80200	1129.37549	1111.55078	1075.83008	1118.27112	1047.79272	975.52179	1169.64038	940.70239	879.39478	1119.04578	979.75842	857.17511	1127.64893	910.98059	809.80688	1517.50696	1083.22107	941.48663	1298.96265	1083.83093	936.30145	1494.34521	1241.44397	964.80090	1325.88269	1235.07715	967.02405	1602.77979	1089.22070	634.01807	1577.67188	1023.21088	485.42450	1579.81543	963.29132	240.45139	1549.15259	889.81250	80.58558	1498.93420	915.75403	53.86284	1558.45483	741.43488	97.60374	1262.24695	1194.47266	609.39557	1287.17517	1224.61475	485.93976	1302.61475	1376.80493	258.88083	1355.58813	1468.44556	99.42073	1402.79333	1513.17542	87.83068	1346.51367	1332.80640	35.40590	1408.67456	1172.83411	1676.47693												 
3	0.020	1476.58459	1062.84387	1637.54749	1345.25159	1055.77454	1623.80432	1470.45581	1196.55542	1584.63306	1342.30298	1188.25854	1576.30066	1411.75342	1196.31079	1425.98938	1402.36145	1239.95496	1098.42725	1421.20447	1087.74939	1346.18567	1427.10632	1055.11328	1169.33228	1320.77966	1266.20032	1259.68201	1577.48071	1162.30664	1376.48645	1636.40479	1224.04810	1181.48291	1637.07947	1267.40308	1077.43457	1660.69421	1300.14929	931.62085	1638.31824	1268.77893	799.44299	1653.02454	1337.08740	818.47949	1659.75110	1329.75317	726.72809	1257.20349	1117.60645	1382.65051	1153.15710	1129.60168	1190.94519	1131.00195	1097.90210	1075.17261	1119.37622	1033.86731	975.16345	1169.87341	926.03040	879.64319	1119.69006	965.09332	857.19653	1127.60815	896.18640	810.61267	1518.84656	1067.91516	940.70837	1300.33398	1069.61157	935.38171	1496.73157	1226.16589	963.80194	1328.25134	1220.59705	965.72266	1604.14551	1072.56665	633.64111	1578.26440	1007.43170	485.18866	1579.96240	947.88019	239.74927	1548.23499	875.86835	79.01633	1498.56494	902.73975	52.47470	1555.81519	727.56860	95.66121	1263.22473	1181.29016	608.66400	1287.68823	1212.05359	485.22369	1301.99109	1369.53943	261.43805	1353.84021	1465.62329	104.34997	1400.79468	1510.87634	94.38303	1346.41150	1332.44214	35.42982	1411.00513	1159.27258	1675.47437												 
4	0.030	1478.79932	1049.16357	1636.85400	1347.49280	1042.19043	1623.08508	1472.96179	1182.92786	1584.06689	1344.79272	1174.90125	1575.75989	1414.11389	1182.83826	1425.13037	1404.25342	1225.30200	1097.30151	1423.24475	1073.99451	1345.60205	1428.86133	1040.63123	1168.87244	1322.98279	1252.26367	1258.70447	1579.70630	1148.46716	1375.46460	1638.33215	1210.60132	1180.67908	1638.74011	1254.31970	1076.70459	1662.13184	1287.98547	931.13141	1639.98743	1257.61780	798.71490	1653.76953	1325.60547	818.16406	1662.15381	1318.92578	726.82471	1259.37354	1104.28552	1382.20850	1155.12866	1116.14478	1190.66296	1132.86487	1084.43457	1074.92371	1120.67480	1020.24268	975.03094	1170.22253	911.85651	879.89233	1120.50000	951.28912	857.22748	1127.68225	882.00781	811.01855	1520.36499	1052.24512	940.32281	1302.06274	1055.51917	934.70581	1498.92053	1210.61829	963.08990	1330.55847	1205.73962	964.71021	1605.03455	1055.57764	633.66852	1578.75635	990.91455	485.45584	1580.06104	933.98480	238.57193	1547.44092	865.27698	76.78506	1498.33240	893.33331	50.33171	1552.44275	716.74628	91.49346	1264.25854	1167.58386	608.09784	1288.16162	1198.66931	484.64709	1301.38733	1361.41052	264.35385	1352.30530	1462.04822	109.79134	1398.93884	1507.82996	101.67661	1346.22571	1331.85413	35.76382	1413.35278	1145.57886	1674.85901												 
